<svg xmlns="http://www.w3.org/2000/svg" viewBox="0 0 148 207">
    <path d="M9.69 146.717c-.393-1.114-.787-2.202-1.102-3.29H8.56a39.586 39.586 0 0 1-1.05 3.29l-2.075 5.732h6.382l-2.127-5.732zM2.6 160.251H0l7.248-18.974H9.98l7.51 18.974h-2.757l-2.127-5.732H4.675L2.6 160.251zm9.152 7.091h-.05v15.949H9.418v-18.974h3.413l4.467 13.242.903 2.865.954-2.865 4.517-13.242h3.237v18.974h-2.284v-15.816h-.049l-5.371 15.816h-2.083zm28.249 17.578c-.155-2.452-1.889-3.754-4.528-3.754-2.432 0-4.165 1.098-4.165 3.064 0 1.123.957 1.736 1.888 2.094 1.656.638 5.072 1.379 6.417 1.89 2.174.791 3.442 2.221 3.442 4.57 0 3.372-3.287 5.414-7.038 5.414-4.632 0-7.685-2.298-7.762-6.281l2.302-.103c.233 3.499 3.338 4.342 5.434 4.342 2.561 0 4.631-1.073 4.631-3.244 0-1.225-.647-1.966-1.992-2.528-1.371-.587-4.631-1.251-6.443-1.94-1.733-.664-3.312-1.865-3.312-4.112 0-3.166 2.976-5.107 6.572-5.107 4.089 0 6.805 1.94 6.935 5.618l-2.38.076zm11.909 3.284h-6.165v-2.203h14.8v2.203h-6.164v16.771H51.91zm15.363-.848h13.193v2.203H69.755v5.891h10.006v2.176H69.755v6.528h10.972v2.176H67.273zm26.909 7.216c2.894 0 4.302-1.008 4.302-3.29 0-1.964-1.116-3.158-3.718-3.158h-6.134v6.448h5.55zm.53-8.57c4.33 0 6.348 2.069 6.348 5.147 0 2.574-1.514 4.432-4.329 4.856l.717.292c1.487.61 2.098 2.203 2.523 3.583.558 1.831 1.195 3.821 2.284 5.095H99.36c-.797-.77-1.487-2.68-1.805-4.3-.479-2.52-1.727-3.953-4.33-3.953h-4.593v8.253h-2.523V186h8.604zm17.102 11.376c1.888 0 3.804-.371 5.008-1.885.958-1.193 1.642-2.918 1.642-5.546 0-3.529-1.15-5.52-3.092-6.554-.848-.451-1.998-.61-3.585-.61h-4.242v14.595h4.27zm-.137-16.798c3.42 0 5.473.902 6.65 1.937 1.833 1.592 2.764 4.007 2.764 7.271 0 3.052-.739 5.387-2.052 6.98-1.56 1.91-3.722 2.786-7.197 2.786h-6.897V180.58h6.732zm19.105-12.179c-.394-1.114-.788-2.202-1.103-3.29h-.027a39.583 39.583 0 0 1-1.05 3.29l-2.075 5.732h6.382l-2.127-5.732zm-7.09 13.534h-2.601l7.248-18.973h2.732l7.51 18.973h-2.757l-2.127-5.732h-7.931l-2.075 5.732zM17.128 43.972c-.156-2.451-1.89-3.754-4.528-3.754-2.433 0-4.166 1.098-4.166 3.064 0 1.124.957 1.737 1.889 2.095 1.655.638 5.071 1.379 6.417 1.89 2.173.791 3.44 2.22 3.44 4.57 0 3.371-3.285 5.414-7.037 5.414-4.631 0-7.685-2.298-7.762-6.282l2.303-.102c.232 3.499 3.337 4.341 5.433 4.341 2.562 0 4.632-1.072 4.632-3.243 0-1.226-.647-1.967-1.993-2.528-1.371-.587-4.631-1.251-6.442-1.94-1.734-.665-3.312-1.865-3.312-4.112 0-3.167 2.975-5.108 6.572-5.108 4.088 0 6.805 1.941 6.934 5.618l-2.38.077zm106.654-5.695h2.591v9.421l9.791-9.421h3.436l-8.209 7.669 8.536 11.305h-3.3l-7.036-9.606-3.218 2.998v6.608h-2.591zm-14.8-4.065h2.691V15.238h-2.691zm17.491-5.7c0 4.554-2.996 5.7-5.462 5.7-3.101 0-4.904-1.536-5.196-4.477-.053-.495-.106-.99-.106-1.588l2.413-.156c.026.573.053 1.067.132 1.51.239 1.51.928 2.602 2.784 2.602 1.723 0 2.943-.937 2.943-3.54V15.239h2.492v13.274zM94.182 3.041h2.495v16.797h9.614v2.176H94.182zM76.691.33h13.193v2.203H79.173v5.89h10.006V10.6H79.173v6.528h10.972v2.176H76.691zM62.032 17.128c1.889 0 3.804-.372 5.008-1.885.958-1.194 1.642-2.918 1.642-5.546 0-3.529-1.15-5.52-3.092-6.554-.849-.451-1.998-.61-3.585-.61h-4.242v14.595h4.27zM61.896.33c3.42 0 5.472.902 6.65 1.937 1.833 1.592 2.763 4.007 2.763 7.27 0 3.053-.739 5.388-2.052 6.98-1.56 1.91-3.722 2.787-7.197 2.787h-6.896V.33h6.732zM34.982 4.396h13.193v2.202H37.464v5.891H47.47v2.177H37.464v6.527h10.972v2.176H34.982zM22.31 21.506h-6.165v-2.202h14.8v2.202h-6.164v16.771H22.31zm109.188 122.796h-.051v15.949h-2.283v-18.974h3.413l4.467 13.242.903 2.866.953-2.866 4.518-13.242h3.237v18.974h-2.284v-15.816h-.05l-5.37 15.816h-2.083zM17.134 72.473h-.05v15.949H14.8V69.448h3.413L22.68 82.69l.903 2.866.954-2.866 4.517-13.242h3.237v18.974h-2.284V72.606h-.05l-5.37 15.816h-2.083zm19.193 19.139V80.291h2.471v11.321c0 3.41 1.197 5.518 4.942 5.518 3.668 0 4.916-2.108 4.916-5.518V80.291h2.471v11.321c0 5.258-2.627 7.652-7.36 7.652-4.839 0-7.44-2.29-7.44-7.652m31.929-.206c-.155-2.451-1.89-3.754-4.528-3.754-2.432 0-4.166 1.099-4.166 3.065 0 1.123.957 1.736 1.889 2.094 1.656.638 5.071 1.379 6.417 1.89 2.173.791 3.441 2.221 3.441 4.57 0 3.371-3.286 5.414-7.038 5.414-4.631 0-7.684-2.298-7.762-6.282l2.303-.102c.233 3.499 3.338 4.341 5.433 4.341 2.562 0 4.632-1.072 4.632-3.243 0-1.226-.647-1.966-1.992-2.528-1.372-.587-4.632-1.251-6.443-1.94-1.734-.665-3.312-1.865-3.312-4.112 0-3.167 2.976-5.107 6.572-5.107 4.088 0 6.805 1.94 6.934 5.618l-2.38.076zm8.435 1.082h13.193v2.202H79.173v5.891h10.006v2.177H79.173v6.528h10.972v2.176H76.691zm17.491 16.742V97.91h2.47v11.321c0 3.41 1.198 5.518 4.943 5.518 3.667 0 4.916-2.108 4.916-5.518V97.91h2.47v11.321c0 5.258-2.626 7.653-7.36 7.653-4.838 0-7.44-2.29-7.44-7.653m23.862 1.19h-.05v15.948h-2.284v-18.973h3.413l4.467 13.242.903 2.865.954-2.865 4.517-13.242h3.237v18.973h-2.284v-15.815h-.05l-5.37 15.815h-2.083z" fill="#0a0a0a"/>
</svg>
