<?xml version="1.0" encoding="UTF-8"?> <!-- Generator: Adobe Illustrator 23.1.1, SVG Export Plug-In . SVG Version: 6.00 Build 0) --> <svg xmlns="http://www.w3.org/2000/svg" xmlns:xlink="http://www.w3.org/1999/xlink" version="1.1" id="Layer_1" x="0px" y="0px" viewBox="0 0 1265 529" style="enable-background:new 0 0 1265 529;" xml:space="preserve"> <style type="text/css"> .st0{fill:#BC0031;} </style> <g> <g> <path class="st0" d="M82.2,147.8c0,8.1,0.9,11.6,10,12.3l12.1,0.9v6.6H27.5V161l12.1-0.9c9-0.7,9.7-4.5,9.7-12.3V20.4H38.6 c-22,0-25.4,10.4-31.7,33.6H0V12.3h131.5V54h-6.9c-6.6-23.2-10-33.6-31.7-33.6H82.2V147.8z"></path> <path class="st0" d="M160.2,110.2c-0.2,24.6,6.9,46,30.3,46c15.4,0,24.4-7.6,31.5-21.8l5.7,3.1c-7.1,19.4-20.6,33.2-46.7,33.2 c-40.5,0-53.1-25.4-53.1-57.3c0-31.5,14.7-57.6,53.5-57.6c42.4,0,47.6,29.4,47.6,45.7c0,6.6-3.6,8.8-11.4,8.8h-57.4V110.2z M190.7,102.1c5.7,0,7.3-1.9,7.3-7.8c0-12.3-2.4-30.8-17.8-30.8c-16.3,0-20.1,23-20.1,38.6C160.1,102.1,190.7,102.1,190.7,102.1z"></path> <path class="st0" d="M338.6,140.3c0,12.6,2.4,16.1,6.2,17.5c2.6,0.9,6.4,1.2,9.2,0.9l0.5,5.4c-6.9,3.6-16.3,6.4-27.7,6.4 c-10.7,0-14.9-5.7-17.3-13.7c-7.6,5-17.8,13.7-32,13.7c-22.3,0-32.7-15.4-32.7-32.2c0-12.3,5.4-21.8,23-27.2 c15.6-4.5,34.8-10.2,41.2-15.6V83.4c0-14.5-6.4-20.1-15.2-20.1c-8.1,0-15.2,4.5-20.1,24.6c-1.2,5-4,7.6-8.8,7.6 c-5.4,0-16.8-3.6-16.8-12.8c0-13,17.3-27,48.3-27c38.1,0,42.2,18.2,42.2,32L338.6,140.3L338.6,140.3z M308.9,104 c-5.2,2.6-14,6.2-21.6,10c-7.8,4-11.4,9.7-11.4,20.1c0,13,7.1,22.5,17.8,22.5c5.9,0,15.2-3.3,15.2-16.8V104z"></path> <path class="st0" d="M459.4,136.5c-7.3,26.3-27.7,34.1-47.1,34.1c-32,0-51.6-18.7-51.6-56.4c0-34.6,18.5-58.5,55.9-58.5 c21.1,0,41,9.2,41,23.9c0,9.5-10,13.3-17.1,13.3c-5.4,0-8.8-2.4-10-7.3c-3.3-14-7.1-22-16.8-22c-11.1,0-20.8,14.5-20.8,45 c0,32.2,12.3,47.6,29.4,47.6c13,0,23.9-5.4,31.7-22.3L459.4,136.5z"></path> <path class="st0" d="M480.9,23.4c0-9-1.7-10.9-5.7-11.6l-7.6-1.2V4.5L510-0.2l1.2,0.7v71.3c13.5-8.8,23.9-16.1,37.9-16.1 c22.7,0,33.4,13.3,33.4,34.6v59.2c0,9.7,1.2,10.9,14.5,11.6v6.6h-57.3v-6.6c9.2-0.9,12.6-0.7,12.6-10.2V91.4 c0-14.7-6.6-21.8-18.7-21.8c-10,0-16.8,5.2-20.1,11.6c-1.7,3.3-2.1,7.8-2.1,13v56.6c0,9.5,3.3,9.2,12.3,10.2v6.6h-57.1V161 c13.3-0.7,14.5-1.9,14.5-11.6v-126H480.9z"></path> <path class="st0" d="M619.8,80.5c0-8.8-1.7-10.7-5.9-11.1l-7.1-1.2V62l42.2-6.2l1.2,0.9v92.6c0,10,1.2,10.7,14.5,11.6v6.6h-59.2 v-6.6c13-0.7,14.5-1.7,14.5-11.6V80.5H619.8z M651.1,26.5c0,9-6.4,16.6-16.6,16.6c-10.4,0-16.6-7.6-16.6-16.6s6.2-16.6,16.8-16.6 C644.9,9.9,651.1,17.5,651.1,26.5z"></path> <path class="st0" d="M789.4,150c0,10,1.2,10.2,14.5,11.1v6.6h-57.6v-6.6c9.5-0.7,12.8-0.5,12.8-10.4V91.9c0-14.7-6.6-22.3-19-22.3 c-9.7,0-17.1,5.4-20.1,11.8c-1.7,3.1-2.1,7.8-2.1,12.8v56.2c0,10,3.6,9.7,12.8,10.7v6.6h-57.6v-6.6c13.3-0.7,14.5-1.7,14.5-11.6 V80.8c0-9-1.4-10.9-5.7-11.4l-7.6-1.2v-5.9l40.5-6.4l3.1,15.6c14.5-8.8,24.9-15.9,38.6-15.9c22.3,0,32.9,13.5,32.9,34.8L789.4,150 L789.4,150z"></path> <path class="st0" d="M924.5,56.4l1.9,1.9l-4.7,14.9h-15.9c3.6,4,6.2,11.8,6.2,19.9c0,27-22.5,36.7-47.6,36.7 c-2.8,0-9-0.5-12.8-0.9c-3.1,0.7-9,3.3-9,8.3c0,5.4,5.2,9,17.3,9H881c23.2,0,42.6,6.9,42.6,33.9c0,15.9-8.5,27-19,33.9 c-11.4,7.1-26.1,10.2-39.3,10.2c-32.2,0-52.8-11.1-52.8-32.5c0-14.5,14.7-19.7,27.2-21.3v-0.5c-11.6-1.9-21.6-9.7-21.6-21.3 c0-9.5,9.7-17.8,23.5-21.3v-0.5c-13-2.6-25.6-13-25.6-33.6c0-17.8,10.4-37.4,49.5-37.4c11.8,0,24.6,2.8,32.2,7.6L924.5,56.4z M898.9,192.4c0-14.5-10.4-20.1-32.5-20.1c-13.7,0-19.9,1.2-23.2,3.8c-4,2.6-7.1,6.6-7.1,14c0,16.1,15.9,26.5,33.9,26.5 C887.3,216.5,898.9,208,898.9,192.4z M846.5,93.3c0,15.4,5.9,28.9,18,28.9c12.3,0,17.8-12.1,17.8-28.9c0-19.4-6.6-29.9-18-29.9 C853.4,63.5,846.5,72.5,846.5,93.3z"></path> <path class="st0" d="M1078.2,48.6c0,18.5-17.1,24.2-34.4,33.4c10.9,13.3,29.6,32,47.4,47.9c5.9-7.6,8.5-19.7,8.5-30.1 c0-8.3-1.4-15.2-3.6-22.3c5.4-5.4,14.9-9.2,21.6-8.5c5.2,5.9,6.2,13.5,5.7,20.6c-0.9,15.2-14.9,34.4-26.5,45.3 c11.4,11.4,27.7,25.6,36.5,28.9l-0.9,5.7l-10-0.2c-19-0.7-32.5-3.6-46.4-14c-14,10.4-25.6,15.2-44.3,15.2 c-27.7,0-50.7-14.7-50.7-43.8c0-21.6,11.8-26.8,31.5-38.4c-7.1-9.2-12.8-20.4-12.8-33.2c0-22.5,16.1-39.1,41-39.1 C1061.9,15.9,1078.2,28.4,1078.2,48.6z M1010.2,117c0,23.2,17.3,39.1,36.2,39.1c10,0,18.7-1.9,23.7-5.9 c-20.8-16.8-42.2-42.2-53.1-55.7C1013.3,98.8,1010.2,106.1,1010.2,117z M1024.2,44.3c0,11.6,6.2,22.5,14.9,32.5 c9.2-6.9,15.2-15.2,15.2-30.6c0-15.2-6.6-22.7-15.4-22.7C1030.1,23.4,1024.2,31,1024.2,44.3z"></path> </g> <g> <path class="st0" d="M395.4,332.2c0,14.7,4.3,17.1,25.1,17.1c24.9,0,31.5-11.8,39.1-36.5h6.9l-3.3,44.5H344.5v-6.6 c16.6-0.9,18-1.9,18-13.5V222c0-11.8-1.4-12.6-18-13.5v-6.6h71.1v6.6c-19,0.7-20.1,1.7-20.1,13.5v110.2H395.4z"></path> <path class="st0" d="M513.1,299.7c-0.2,24.6,6.9,46,30.3,46c15.4,0,24.4-7.6,31.5-21.8l5.7,3.1c-7.1,19.4-20.6,33.2-46.7,33.2 c-40.5,0-53.1-25.4-53.1-57.3c0-31.5,14.7-57.6,53.5-57.6c42.4,0,47.6,29.4,47.6,45.7c0,6.6-3.6,8.8-11.4,8.8h-57.4V299.7z M543.7,291.6c5.7,0,7.3-1.9,7.3-7.8c0-12.3-2.4-30.8-17.8-30.8c-16.3,0-20.1,23-20.1,38.6H543.7z"></path> <path class="st0" d="M686.8,329.8c0,12.6,2.4,16.1,6.2,17.5c2.6,0.9,6.4,1.2,9.2,0.9l0.5,5.4c-6.9,3.6-16.3,6.4-27.7,6.4 c-10.7,0-14.9-5.7-17.3-13.7c-7.6,5-17.8,13.7-32,13.7c-22.3,0-32.7-15.4-32.7-32.2c0-12.3,5.4-21.8,23-27.2 c15.6-4.5,34.8-10.2,41.2-15.6v-12.1c0-14.5-6.4-20.1-15.2-20.1c-8.1,0-15.2,4.5-20.1,24.6c-1.2,5-4,7.6-8.8,7.6 c-5.4,0-16.8-3.6-16.8-12.8c0-13,17.3-27,48.3-27c38.1,0,42.2,18.2,42.2,32L686.8,329.8L686.8,329.8z M657.2,293.5 c-5.2,2.6-14,6.2-21.6,10c-7.8,4-11.4,9.7-11.4,20.1c0,13,7.1,22.5,17.8,22.5c5.9,0,15.2-3.3,15.2-16.8V293.5z"></path> <path class="st0" d="M754.3,339c0,10,1.4,10.7,19,11.6v6.6h-63.7v-6.6c13.3-0.7,14.5-1.7,14.5-11.6v-68.9c0-8.5-1.7-10.4-5.7-11.1 l-7.6-0.9v-6.2l40.5-6.4l2.6,20.4c13.5-14.2,20.4-20.6,29.4-20.6c9.5,0,14.7,5.9,14.7,14.7c0,8.3-5.4,17.8-14.5,17.8 c-3.6,0-5.9-1.7-8.3-3.6c-4.7-4-8.1-5.9-11.8-5.9c-5.4,0-9,5.4-9,18.2V339H754.3z"></path> <path class="st0" d="M921.1,339.5c0,10,1.2,10.2,14.5,11.1v6.6H878v-6.6c9.5-0.7,12.8-0.5,12.8-10.4v-58.8 c0-14.7-6.6-22.3-19-22.3c-9.7,0-17.1,5.4-20.1,11.8c-1.7,3.1-2.1,7.8-2.1,12.8V340c0,10,3.6,9.7,12.8,10.7v6.6h-57.6v-6.6 c13.3-0.7,14.5-1.7,14.5-11.6v-68.7c0-9-1.4-10.9-5.7-11.4l-7.6-1.2v-5.9l40.5-6.4l3.1,15.6c14.5-8.8,24.9-15.9,38.6-15.9 c22.3,0,32.9,13.5,32.9,34.8L921.1,339.5L921.1,339.5z"></path> <path class="st0" d="M958.3,270.1c0-8.8-1.7-10.7-5.9-11.1l-7.1-1.2v-6.2l42.2-6.2l1.2,0.9V339c0,10,1.2,10.7,14.5,11.6v6.6H944 v-6.6c13-0.7,14.5-1.7,14.5-11.6v-68.9H958.3z M989.6,216.1c0,9-6.4,16.6-16.6,16.6c-10.4,0-16.6-7.6-16.6-16.6 s6.2-16.6,16.8-16.6C983.4,199.5,989.6,207.1,989.6,216.1z"></path> <path class="st0" d="M1128,339.5c0,10,1.2,10.2,14.5,11.1v6.6h-57.6v-6.6c9.5-0.7,12.8-0.5,12.8-10.4v-58.8 c0-14.7-6.6-22.3-19-22.3c-9.7,0-17.1,5.4-20.1,11.8c-1.7,3.1-2.1,7.8-2.1,12.8V340c0,10,3.6,9.7,12.8,10.7v6.6h-57.6v-6.6 c13.3-0.7,14.5-1.7,14.5-11.6v-68.7c0-9-1.4-10.9-5.7-11.4l-7.6-1.2v-5.9l40.5-6.4l3.1,15.6c14.5-8.8,24.9-15.9,38.6-15.9 c22.3,0,32.9,13.5,32.9,34.8L1128,339.5L1128,339.5z"></path> <path class="st0" d="M1263,245.9l1.9,1.9l-4.7,14.9h-15.9c3.6,4,6.2,11.8,6.2,19.9c0,27-22.5,36.7-47.6,36.7 c-2.8,0-9-0.5-12.8-0.9c-3.1,0.7-9,3.3-9,8.3c0,5.4,5.2,9,17.3,9h21.1c23.2,0,42.6,6.9,42.6,33.9c0,15.9-8.5,27-19,33.9 c-11.4,7.1-26.1,10.2-39.3,10.2c-32.2,0-52.8-11.1-52.8-32.5c0-14.5,14.7-19.7,27.2-21.3v-0.5c-11.6-1.9-21.6-9.7-21.6-21.3 c0-9.5,9.7-17.8,23.5-21.3v-0.5c-13-2.6-25.6-13-25.6-33.6c0-17.8,10.4-37.4,49.5-37.4c11.8,0,24.6,2.8,32.2,7.6L1263,245.9z M1237.4,381.9c0-14.5-10.4-20.1-32.5-20.1c-13.7,0-19.9,1.2-23.2,3.8c-4,2.6-7.1,6.6-7.1,14c0,16.1,15.9,26.5,33.9,26.5 C1225.8,406.1,1237.4,397.6,1237.4,381.9z M1185.1,282.9c0,15.4,5.9,28.9,18,28.9c12.3,0,17.8-12.1,17.8-28.9 c0-19.4-6.6-29.9-18-29.9C1191.9,253,1185.1,262,1185.1,282.9z"></path> </g> <g> <path class="st0" d="M141.2,476.7l-3.1,41.7c-12.8,7.3-35.5,10.4-51.6,10.4c-57.6,0-81.3-29.6-81.3-80.1 c0-23.9,5.7-44.3,19.2-59.5c13.3-14.7,33.4-23.7,65.6-23.7c13.7,0,35.8,2.6,48.1,9.7v39.3h-6.9c-5.2-19.9-15.9-41.2-43.4-41.2 c-40.8,0-46.2,49.5-46.2,72.3c0,29.9,6.9,75.3,48.1,75.3c26.5,0,36.2-18,44.5-44.3L141.2,476.7L141.2,476.7z"></path> <path class="st0" d="M186.9,467.4c-0.2,24.6,6.9,46,30.3,46c15.4,0,24.4-7.6,31.5-21.8l5.7,3.1c-7.1,19.4-20.6,33.2-46.7,33.2 c-40.5,0-53.1-25.4-53.1-57.3c0-31.5,14.7-57.6,53.5-57.6c42.4,0,47.6,29.4,47.6,45.7c0,6.6-3.6,8.8-11.4,8.8h-57.4V467.4z M217.5,459.4c5.7,0,7.3-1.9,7.3-7.8c0-12.3-2.4-30.8-17.8-30.8c-16.3,0-20.1,23-20.1,38.6L217.5,459.4L217.5,459.4z"></path> <path class="st0" d="M379.3,507.2c0,10,1.2,10.2,14.5,11.1v6.6h-57.6v-6.6c9.5-0.7,12.8-0.5,12.8-10.4v-58.8 c0-14.7-6.6-22.3-19-22.3c-9.7,0-17.1,5.4-20.1,11.8c-1.7,3.1-2.1,7.8-2.1,12.8v56.2c0,10,3.6,9.7,12.8,10.7v6.6H263v-6.6 c13.3-0.7,14.5-1.7,14.5-11.6V438c0-9-1.4-10.9-5.7-11.4l-7.6-1.2v-5.9l40.5-6.4l3.1,15.6c14.5-8.8,24.9-15.9,38.6-15.9 c22.3,0,32.9,13.5,32.9,34.8V507.2z"></path> <path class="st0" d="M440.2,425.3v67.5c0,14.9,5.7,20.8,13.7,20.8c3.8,0,7.8-0.7,11.4-2.4l1.9,5.2c-11.4,7.8-22.3,11.4-31.7,11.4 c-11.1,0-25.6-6.6-25.6-28v-74.6h-13.5v-9.5h14.7l18.2-28h10.9v28h23.9v9.5h-23.9V425.3z"></path> <path class="st0" d="M598.7,467.4c-0.2,24.6,6.9,46,30.3,46c15.4,0,24.4-7.6,31.5-21.8l5.7,3.1c-7.1,19.4-20.6,33.2-46.7,33.2 c-40.5,0-53.1-25.4-53.1-57.3c0-31.5,14.7-57.6,53.5-57.6c42.4,0,47.6,29.4,47.6,45.7c0,6.6-3.6,8.8-11.4,8.8h-57.4V467.4z M629.3,459.4c5.7,0,7.3-1.9,7.3-7.8c0-12.3-2.4-30.8-17.8-30.8c-16.3,0-20.1,23-20.1,38.6L629.3,459.4L629.3,459.4z"></path> <path class="st0" d="M523,506.8c0,10,1.4,10.7,19,11.6v6.6h-63.7v-6.6c13.3-0.7,14.5-1.7,14.5-11.6v-68.9c0-8.5-1.7-10.4-5.7-11.1 l-7.6-0.9v-6.2l40.5-6.4l2.6,20.4c13.5-14.2,20.4-20.6,29.4-20.6c9.5,0,14.7,5.9,14.7,14.7c0,8.3-5.4,17.8-14.5,17.8 c-3.6,0-5.9-1.7-8.3-3.6c-4.7-4-8.1-5.9-11.8-5.9c-5.4,0-9,5.4-9,18.2v52.5H523z"></path> </g> </g> </svg>